<svg width="56" height="56" viewBox="0 0 56 56" fill="none" xmlns="http://www.w3.org/2000/svg">
<path fill-rule="evenodd" clip-rule="evenodd" d="M25.591 31.207C29.28 31.207 32.433 31.766 32.433 33.999C32.433 36.232 29.301 36.807 25.591 36.807C21.901 36.807 18.749 36.253 18.749 34.019C18.749 31.785 21.88 31.207 25.591 31.207Z" stroke="#53545C" stroke-width="1.5" stroke-linecap="round" stroke-linejoin="round"/>
<path fill-rule="evenodd" clip-rule="evenodd" d="M25.5911 28.02C23.1691 28.02 21.2051 26.057 21.2051 23.635C21.2051 21.213 23.1691 19.25 25.5911 19.25C28.0121 19.25 29.9761 21.213 29.9761 23.635C29.9851 26.048 28.0351 28.011 25.6221 28.02H25.5911Z" stroke="#53545C" stroke-width="1.5" stroke-linecap="round" stroke-linejoin="round"/>
<path d="M32.4824 26.8818C34.0834 26.6568 35.3164 25.2828 35.3194 23.6198C35.3194 21.9808 34.1244 20.6208 32.5574 20.3638" stroke="#53545C" stroke-width="1.5" stroke-linecap="round" stroke-linejoin="round"/>
<path d="M34.5947 30.7324C36.1457 30.9634 37.2287 31.5074 37.2287 32.6274C37.2287 33.3984 36.7187 33.8984 35.8947 34.2114" stroke="#53545C" stroke-width="1.5" stroke-linecap="round" stroke-linejoin="round"/>
</svg>
