<svg width="56" height="56" viewBox="0 0 56 56" fill="none" xmlns="http://www.w3.org/2000/svg">
<path fill-rule="evenodd" clip-rule="evenodd" d="M36.8064 23.6234L36.184 22.5433C35.6574 21.6294 34.4905 21.3141 33.5753 21.8385V21.8385C33.1397 22.0951 32.6198 22.1679 32.1305 22.0408C31.6411 21.9138 31.2224 21.5973 30.9666 21.1611C30.8021 20.8839 30.7137 20.5682 30.7103 20.2458V20.2458C30.7251 19.729 30.5302 19.2282 30.1698 18.8574C29.8094 18.4867 29.3143 18.2776 28.7973 18.2778H27.5433C27.0367 18.2778 26.5511 18.4797 26.1938 18.8387C25.8364 19.1977 25.6369 19.6843 25.6394 20.1909V20.1909C25.6244 21.2367 24.7722 22.0766 23.7263 22.0765C23.404 22.0731 23.0882 21.9847 22.811 21.8202V21.8202C21.8958 21.2958 20.7289 21.6111 20.2023 22.525L19.5341 23.6234C19.0082 24.5361 19.3192 25.7024 20.2298 26.2321V26.2321C20.8217 26.5738 21.1863 27.2053 21.1863 27.8888C21.1863 28.5723 20.8217 29.2038 20.2298 29.5456V29.5456C19.3203 30.0717 19.009 31.2351 19.5341 32.1451V32.1451L20.1657 33.2344C20.4124 33.6795 20.8264 34.0081 21.3159 34.1472C21.8055 34.2863 22.3304 34.2247 22.7744 33.9758V33.9758C23.2108 33.7211 23.7309 33.6513 24.2191 33.782C24.7072 33.9126 25.123 34.2328 25.3739 34.6714C25.5385 34.9486 25.6269 35.2644 25.6302 35.5868V35.5868C25.6302 36.6433 26.4867 37.4998 27.5433 37.4998H28.7973C29.8502 37.4998 30.7053 36.6489 30.7103 35.5959V35.5959C30.7079 35.0878 30.9086 34.5998 31.2679 34.2405C31.6272 33.8812 32.1152 33.6804 32.6233 33.6829C32.9449 33.6915 33.2594 33.7795 33.5387 33.9392V33.9392C34.4515 34.4651 35.6177 34.1541 36.1474 33.2435V33.2435L36.8064 32.1451C37.0615 31.7073 37.1315 31.1858 37.001 30.6961C36.8704 30.2065 36.55 29.7891 36.1108 29.5364V29.5364C35.6715 29.2837 35.3511 28.8663 35.2206 28.3767C35.09 27.8871 35.16 27.3656 35.4151 26.9277C35.581 26.6381 35.8211 26.398 36.1108 26.2321V26.2321C37.0159 25.7026 37.3262 24.5432 36.8064 23.6325V23.6325V23.6234Z" stroke="#53545C" stroke-width="1.5" stroke-linecap="round" stroke-linejoin="round"/>
<circle cx="28.1752" cy="27.8886" r="2.63616" stroke="#53545C" stroke-width="1.5" stroke-linecap="round" stroke-linejoin="round"/>
</svg>
